<svg width="50" height="50" viewBox="0 0 50 50" fill="none" xmlns="http://www.w3.org/2000/svg">
<g clip-path="url(#clip0_90019_58)">
<path d="M49.5833 25C49.5833 11.308 38.4837 0.208344 24.7917 0.208344C11.0996 0.208344 0 11.308 0 25C0 38.6921 11.0996 49.7917 24.7917 49.7917C38.4837 49.7917 49.5833 38.6921 49.5833 25Z" fill="url(#paint0_linear_90019_58)"/>
<g clip-path="url(#clip1_90019_58)">
<path d="M25.0002 36.9999C26.0369 36.9999 26.9322 36.3844 27.3411 35.4999H22.6592C23.0682 36.3844 23.9634 36.9999 25.0002 36.9999Z" fill="black"/>
<path d="M24.2971 30.8125V25.1262C22.6943 24.8431 21.4846 23.612 21.4846 22.1406C21.4846 21.7523 21.7994 21.4375 22.1877 21.4375C22.576 21.4375 22.8908 21.7523 22.8908 22.1406C22.8908 22.8535 23.4787 23.4614 24.2971 23.6872V13.4806C23.8145 13.1715 23.248 13.0001 22.6565 13.0001C21.1778 13.0001 19.9165 14.0677 19.6596 15.5087C17.9663 16.0039 16.7971 17.5526 16.7971 19.3281C16.7971 20.2775 17.1332 21.1849 17.7479 21.9063C17.1333 22.6277 16.7971 23.535 16.7971 24.4844C16.7971 26.26 17.9663 27.8086 19.6596 28.3038C19.9164 29.7447 21.1778 30.8125 22.6565 30.8125H24.2971Z" fill="black"/>
<path d="M21.4846 32.9219C21.4846 33.5691 22.0093 34.0938 22.6565 34.0938H27.344C27.9912 34.0938 28.5159 33.5691 28.5159 32.9219V32.2188H21.4846V32.9219Z" fill="black"/>
<path d="M30.3406 15.5087C30.0838 14.0678 28.8225 13.0001 27.3437 13.0001C26.7522 13.0001 26.1857 13.1715 25.7031 13.4806V18.6864C27.3059 18.9695 28.5156 20.2005 28.5156 21.6719C28.5156 22.0602 28.2008 22.3751 27.8125 22.3751C27.4242 22.3751 27.1094 22.0602 27.1094 21.6719C27.1094 20.959 26.5215 20.3511 25.7031 20.1254V30.8125H27.3437C28.8224 30.8125 30.0838 29.7448 30.3406 28.3039C32.0339 27.8087 33.2031 26.26 33.2031 24.4844C33.2031 23.535 32.867 22.6277 32.2523 21.9063C32.867 21.1849 33.2031 20.2776 33.2031 19.3282C33.2031 17.5526 32.0339 16.0039 30.3406 15.5087Z" fill="black"/>
<path d="M34.8914 16.9845C34.6641 16.9845 34.4412 16.8746 34.3056 16.6713C34.0903 16.3482 34.1776 15.9117 34.5007 15.6963L35.9069 14.7588C36.23 14.5433 36.6666 14.6307 36.882 14.9538C37.0974 15.2769 37.0101 15.7134 36.6869 15.9288L35.2807 16.8663C35.1609 16.9462 35.0254 16.9845 34.8914 16.9845Z" fill="black"/>
<path d="M36.2963 28.7032C36.1623 28.7032 36.0268 28.665 35.9069 28.585L34.5007 27.6475C34.1776 27.4321 34.0903 26.9956 34.3056 26.6725C34.5211 26.3493 34.9577 26.2621 35.2807 26.4775L36.6869 27.415C37.0101 27.6304 37.0974 28.0669 36.882 28.39C36.7465 28.5932 36.5235 28.7032 36.2963 28.7032Z" fill="black"/>
<path d="M15.1088 16.9845C14.9748 16.9845 14.8393 16.9463 14.7194 16.8664L13.3132 15.9289C12.9901 15.7135 12.9028 15.2769 13.1181 14.9538C13.3336 14.6307 13.7702 14.5434 14.0932 14.7588L15.4994 15.6963C15.8226 15.9117 15.9099 16.3483 15.6945 16.6714C15.559 16.8746 15.336 16.9845 15.1088 16.9845Z" fill="black"/>
<path d="M13.7039 28.7032C13.4766 28.7032 13.2537 28.5933 13.1181 28.39C12.9028 28.0669 12.9901 27.6303 13.3132 27.415L14.7194 26.4775C15.0425 26.262 15.4791 26.3493 15.6945 26.6725C15.9099 26.9956 15.8226 27.4321 15.4994 27.6475L14.0932 28.585C13.9734 28.6649 13.8379 28.7032 13.7039 28.7032Z" fill="black"/>
<path d="M15.1096 22.3751H13.7034C13.3151 22.3751 13.0002 22.0602 13.0002 21.6719C13.0002 21.2836 13.3151 20.9688 13.7034 20.9688H15.1096C15.4979 20.9688 15.8127 21.2836 15.8127 21.6719C15.8127 22.0602 15.4979 22.3751 15.1096 22.3751Z" fill="black"/>
<path d="M36.2969 22.3751H34.8906C34.5023 22.3751 34.1875 22.0602 34.1875 21.6719C34.1875 21.2836 34.5023 20.9688 34.8906 20.9688H36.2969C36.6852 20.9688 37 21.2836 37 21.6719C37 22.0602 36.6852 22.3751 36.2969 22.3751Z" fill="black"/>
</g>
</g>
<defs>
<linearGradient id="paint0_linear_90019_58" x1="24.7917" y1="0.208344" x2="24.7917" y2="49.7917" gradientUnits="userSpaceOnUse">
<stop stop-color="#EBF3FA"/>
<stop offset="1" stop-color="#DFEDFA"/>
</linearGradient>
<clipPath id="clip0_90019_58">
<rect width="50" height="50" fill="white"/>
</clipPath>
<clipPath id="clip1_90019_58">
<rect width="24" height="24" fill="white" transform="translate(13 13)"/>
</clipPath>
</defs>
</svg>
