<svg width="50" height="50" viewBox="0 0 50 50" fill="none" xmlns="http://www.w3.org/2000/svg">
<g clip-path="url(#clip0_90019_82)">
<path d="M49.5833 25C49.5833 11.3079 38.4837 0.208313 24.7917 0.208313C11.0996 0.208313 0 11.3079 0 25C0 38.692 11.0996 49.7916 24.7917 49.7916C38.4837 49.7916 49.5833 38.692 49.5833 25Z" fill="url(#paint0_linear_90019_82)"/>
<g clip-path="url(#clip1_90019_82)">
<path d="M29.5206 26.3594L23.6406 20.4794C23.4289 20.268 23.1659 20.1152 22.8774 20.0362C22.5889 19.9572 22.2847 19.9545 21.9949 20.0286L16.624 21.4343C16.2534 21.529 15.9255 21.7458 15.6932 22.0496C15.4609 22.3535 15.3377 22.7267 15.3434 23.1091C15.3767 27.3317 14.6071 31.5221 13.0754 35.4571C12.9992 35.6613 12.9833 35.8831 13.0296 36.0961C13.0759 36.309 13.1825 36.5042 13.3366 36.6583C13.4907 36.8124 13.6858 36.919 13.8988 36.9653C14.1118 37.0116 14.3335 36.9957 14.5377 36.9194C18.4732 35.3896 22.6635 34.6216 26.8857 34.6566C27.2682 34.6623 27.6414 34.5391 27.9453 34.3068C28.2491 34.0745 28.4659 33.7466 28.5606 33.376L29.9714 28.0051C30.0455 27.7153 30.0429 27.4112 29.9638 27.1226C29.8848 26.8341 29.732 26.5711 29.5206 26.3594ZM24.1943 29.8737C23.792 30.276 23.2794 30.55 22.7214 30.661C22.1634 30.772 21.585 30.7151 21.0594 30.4973C20.5338 30.2796 20.0845 29.9109 19.7684 29.4379C19.4523 28.9648 19.2836 28.4087 19.2836 27.8397C19.2836 27.2708 19.4523 26.7146 19.7684 26.2416C20.0845 25.7685 20.5338 25.3998 21.0594 25.1821C21.585 24.9644 22.1634 24.9074 22.7214 25.0184C23.2794 25.1294 23.792 25.4034 24.1943 25.8057C24.7329 26.3456 25.0354 27.0771 25.0354 27.8397C25.0354 28.6023 24.7329 29.3338 24.1943 29.8737Z" fill="#0E0E10"/>
<path d="M36.4974 20.3697L29.629 13.5013C28.9596 12.8319 27.8744 12.8319 27.205 13.5013L24.7616 15.9447C24.0922 16.6141 24.0922 17.6993 24.7616 18.3687L31.63 25.2371C32.2994 25.9065 33.3846 25.9065 34.054 25.2371L36.4974 22.7937C37.1668 22.1243 37.1668 21.0391 36.4974 20.3697Z" fill="#0E0E10"/>
</g>
</g>
<defs>
<linearGradient id="paint0_linear_90019_82" x1="24.7917" y1="0.208313" x2="24.7917" y2="49.7916" gradientUnits="userSpaceOnUse">
<stop stop-color="#EBF3FA"/>
<stop offset="1" stop-color="#DFEDFA"/>
</linearGradient>
<clipPath id="clip0_90019_82">
<rect width="50" height="50" fill="white"/>
</clipPath>
<clipPath id="clip1_90019_82">
<rect width="24" height="24" fill="white" transform="translate(13 13)"/>
</clipPath>
</defs>
</svg>
