<svg width="50" height="50" viewBox="0 0 50 50" fill="none" xmlns="http://www.w3.org/2000/svg">
<g clip-path="url(#clip0_90019_42)">
<path d="M49.5833 25C49.5833 11.308 38.4837 0.208344 24.7917 0.208344C11.0996 0.208344 0 11.308 0 25C0 38.6921 11.0996 49.7917 24.7917 49.7917C38.4837 49.7917 49.5833 38.6921 49.5833 25Z" fill="url(#paint0_linear_90019_42)"/>
<g clip-path="url(#clip1_90019_42)">
<path d="M25 16.457C24.586 16.457 24.25 16.121 24.25 15.707V13.75C24.25 13.336 24.586 13 25 13C25.414 13 25.75 13.336 25.75 13.75V15.707C25.75 16.121 25.414 16.457 25 16.457Z" fill="#0E0E10"/>
<path d="M31.571 19.179C31.379 19.179 31.187 19.106 31.041 18.959C30.748 18.666 30.748 18.191 31.041 17.898L32.425 16.514C32.718 16.221 33.193 16.221 33.486 16.514C33.779 16.807 33.779 17.282 33.486 17.575L32.102 18.959C31.955 19.105 31.763 19.179 31.571 19.179Z" fill="#0E0E10"/>
<path d="M36.25 25.75H34.293C33.879 25.75 33.543 25.414 33.543 25C33.543 24.586 33.879 24.25 34.293 24.25H36.25C36.664 24.25 37 24.586 37 25C37 25.414 36.664 25.75 36.25 25.75Z" fill="#0E0E10"/>
<path d="M32.955 33.705C32.763 33.705 32.571 33.632 32.425 33.485L31.041 32.101C30.748 31.808 30.748 31.333 31.041 31.04C31.334 30.747 31.809 30.747 32.102 31.04L33.486 32.424C33.779 32.717 33.779 33.192 33.486 33.485C33.339 33.632 33.147 33.705 32.955 33.705Z" fill="#0E0E10"/>
<path d="M17.0449 33.705C16.8529 33.705 16.6609 33.632 16.5149 33.485C16.2219 33.192 16.2219 32.717 16.5149 32.424L17.8989 31.04C18.1919 30.747 18.6669 30.747 18.9599 31.04C19.2529 31.333 19.2529 31.808 18.9599 32.101L17.5759 33.485C17.4289 33.632 17.2369 33.705 17.0449 33.705Z" fill="#0E0E10"/>
<path d="M15.707 25.75H13.75C13.336 25.75 13 25.414 13 25C13 24.586 13.336 24.25 13.75 24.25H15.707C16.121 24.25 16.457 24.586 16.457 25C16.457 25.414 16.121 25.75 15.707 25.75Z" fill="#0E0E10"/>
<path d="M18.4289 19.179C18.2369 19.179 18.0449 19.106 17.8989 18.959L16.5149 17.575C16.2219 17.282 16.2219 16.807 16.5149 16.514C16.8079 16.221 17.2829 16.221 17.5759 16.514L18.9599 17.898C19.2529 18.191 19.2529 18.666 18.9599 18.959C18.8119 19.105 18.6209 19.179 18.4289 19.179Z" fill="#0E0E10"/>
<path d="M28 34V35.25C28 36.21 27.21 37 26.25 37H23.75C22.91 37 22 36.36 22 34.96V34H28Z" fill="#0E0E10"/>
<path d="M29.4101 19.56C27.7701 18.23 25.6101 17.71 23.5001 18.16C20.8501 18.71 18.7001 20.87 18.1501 23.52C17.5901 26.24 18.6101 28.94 20.7901 30.59C21.3801 31.03 21.7901 31.71 21.9301 32.5V32.51C21.9501 32.5 21.9801 32.5 22.0001 32.5H28.0001C28.0201 32.5 28.0301 32.5 28.0501 32.51V32.5C28.1901 31.74 28.6401 31.04 29.3301 30.5C31.0201 29.16 32.0001 27.16 32.0001 25C32.0001 22.88 31.0601 20.9 29.4101 19.56ZM28.7501 25.5C28.3401 25.5 28.0001 25.16 28.0001 24.75C28.0001 23.23 26.7701 22 25.2501 22C24.8401 22 24.5001 21.66 24.5001 21.25C24.5001 20.84 24.8401 20.5 25.2501 20.5C27.5901 20.5 29.5001 22.41 29.5001 24.75C29.5001 25.16 29.1601 25.5 28.7501 25.5Z" fill="#0E0E10"/>
<path d="M21.9299 32.5H21.9999C21.9799 32.5 21.9499 32.5 21.9299 32.51V32.5Z" fill="#0E0E10"/>
<path d="M28.05 32.5V32.51C28.03 32.5 28.02 32.5 28 32.5H28.05Z" fill="#0E0E10"/>
</g>
</g>
<defs>
<linearGradient id="paint0_linear_90019_42" x1="24.7917" y1="0.208344" x2="24.7917" y2="49.7917" gradientUnits="userSpaceOnUse">
<stop stop-color="#EBF3FA"/>
<stop offset="1" stop-color="#DFEDFA"/>
</linearGradient>
<clipPath id="clip0_90019_42">
<rect width="50" height="50" fill="white"/>
</clipPath>
<clipPath id="clip1_90019_42">
<rect width="24" height="24" fill="white" transform="translate(13 13)"/>
</clipPath>
</defs>
</svg>
